<?xml version="1.0" encoding="utf-8"?>
<!-- Generator: Adobe Illustrator 16.0.0, SVG Export Plug-In . SVG Version: 6.00 Build 0)  -->
<!DOCTYPE svg PUBLIC "-//W3C//DTD SVG 1.1//EN" "http://www.w3.org/Graphics/SVG/1.1/DTD/svg11.dtd">
<svg version="1.1" id="Layer_1" xmlns="http://www.w3.org/2000/svg" xmlns:xlink="http://www.w3.org/1999/xlink" x="0px" y="0px"
	 width="25px" height="25px" viewBox="0 0 25 25" enable-background="new 0 0 25 25" xml:space="preserve">
<path fill="#808285" d="M21.962,1.867H3.038c-0.65,0-1.174,0.522-1.174,1.173v18.924c0,0.646,0.523,1.17,1.174,1.17h10.188v-8.235
	h-2.771v-3.21h2.77V9.321c0-2.747,1.684-4.242,4.131-4.242c1.176,0,2.182,0.086,2.479,0.127v2.868h-1.699
	c-1.336,0-1.592,0.638-1.592,1.568v2.045h3.18l-0.418,3.21H16.54v8.236h5.42c0.65,0,1.176-0.522,1.176-1.17V3.04
	C23.136,2.389,22.612,1.867,21.962,1.867z"/>
</svg>
