<?xml version="1.0" encoding="utf-8"?>
<!-- Generator: Adobe Illustrator 16.0.0, SVG Export Plug-In . SVG Version: 6.00 Build 0)  -->
<!DOCTYPE svg PUBLIC "-//W3C//DTD SVG 1.1//EN" "http://www.w3.org/Graphics/SVG/1.1/DTD/svg11.dtd">
<svg version="1.1" id="Layer_1" xmlns="http://www.w3.org/2000/svg" xmlns:xlink="http://www.w3.org/1999/xlink" x="0px" y="0px"
	 width="25px" height="25px" viewBox="0 0 25 25" enable-background="new 0 0 25 25" xml:space="preserve">
<path fill="#808285" d="M17.144,9.293h6.523v10.015c0,2.439-1.979,4.418-4.418,4.418H5.75c-2.44,0-4.418-1.979-4.418-4.418V9.293
	h6.496c-0.666,0.934-1.058,2.075-1.058,3.309c0,3.156,2.558,5.716,5.715,5.716c3.156,0,5.712-2.561,5.712-5.716
	C18.198,11.367,17.81,10.227,17.144,9.293z M23.667,5.69v2.901h-7.109c-1.037-1.053-2.479-1.707-4.072-1.707
	c-1.595,0-3.034,0.654-4.071,1.707H1.333V5.69c0-1.489,0.737-2.806,1.867-3.604v4.756h0.905v-5.25
	c0.205-0.084,0.418-0.15,0.638-0.201v5.451h0.905V1.276C5.683,1.274,5.715,1.273,5.75,1.273h0.522v5.568h0.906V1.273h12.07
	C21.688,1.273,23.667,3.252,23.667,5.69z M21.647,3.83c0-0.393-0.316-0.709-0.709-0.709h-2.387c-0.391,0-0.709,0.316-0.709,0.709
	V6.27c0,0.393,0.318,0.709,0.709,0.709h2.389c0.391,0,0.707-0.316,0.707-0.709V3.83L21.647,3.83z M8.082,12.602
	c0-1.318,0.584-2.501,1.505-3.309c0.323-0.285,0.688-0.521,1.083-0.701c0.554-0.252,1.168-0.394,1.816-0.394
	c0.645,0,1.261,0.142,1.814,0.394c0.396,0.181,0.76,0.418,1.084,0.701c0.92,0.808,1.504,1.99,1.504,3.309
	c0,2.427-1.977,4.404-4.402,4.404C10.059,17.005,8.082,15.029,8.082,12.602L8.082,12.602z M9.246,12.602
	c0,1.798,1.458,3.253,3.254,3.253c1.796,0,3.253-1.455,3.253-3.253c0-1.797-1.457-3.254-3.253-3.254
	C10.704,9.348,9.246,10.805,9.246,12.602L9.246,12.602z"/>
</svg>
