<?xml version="1.0" encoding="utf-8"?>
<!-- Generator: Adobe Illustrator 16.0.0, SVG Export Plug-In . SVG Version: 6.00 Build 0)  -->
<!DOCTYPE svg PUBLIC "-//W3C//DTD SVG 1.1//EN" "http://www.w3.org/Graphics/SVG/1.1/DTD/svg11.dtd">
<svg version="1.1" id="Layer_1" xmlns="http://www.w3.org/2000/svg" xmlns:xlink="http://www.w3.org/1999/xlink" x="0px" y="0px"
	 width="120px" height="60px" viewBox="0 0 120 60" enable-background="new 0 0 120 60" xml:space="preserve">
<g>
	<path fill="#414042" d="M31.96,11.958h-3.409v13.634h2.727v2.045h-2.727v19.087h-2.727V9.913h6.136V11.958z"/>
	<path fill="#414042" d="M42.595,46.725h-2.727l-0.341-8.862h-2.024l-0.362,8.862h-2.727l2.045-36.812h4.09L42.595,46.725z
		 M39.186,27.638l-0.682-16.361l-0.682,16.361l-0.32,8.18h2.024L39.186,27.638z"/>
	<path fill="#414042" d="M50.502,37.755c0-1.505-0.078-2.798-0.234-3.877c-0.156-1.08-0.361-2.021-0.616-2.823
		s-0.557-1.493-0.906-2.07c-0.349-0.577-0.687-1.136-1.014-1.677c-0.327-0.541-0.65-1.075-0.969-1.604
		c-0.32-0.528-0.607-1.127-0.863-1.794c-0.255-0.667-0.461-1.438-0.618-2.312s-0.234-1.92-0.234-3.142v-5.134
		c0-0.341,0.053-0.728,0.16-1.161c0.107-0.433,0.309-0.837,0.607-1.214s0.713-0.696,1.246-0.959
		c0.533-0.263,1.225-0.394,2.077-0.394s1.544,0.131,2.077,0.394c0.533,0.263,0.948,0.583,1.246,0.959s0.5,0.781,0.607,1.214
		c0.106,0.434,0.16,0.82,0.16,1.161v9.544h-2.727v-9.544c0-0.341-0.039-0.621-0.117-0.841s-0.181-0.391-0.309-0.511
		c-0.128-0.121-0.274-0.206-0.437-0.256c-0.163-0.049-0.33-0.075-0.5-0.075s-0.337,0.025-0.5,0.075
		c-0.164,0.05-0.309,0.135-0.437,0.255c-0.127,0.121-0.231,0.291-0.309,0.51c-0.079,0.22-0.117,0.5-0.117,0.84v4.146
		c0,1.602,0.138,2.941,0.414,4.018c0.276,1.077,0.621,2.016,1.035,2.817s0.833,1.542,1.256,2.224
		c0.423,0.682,0.861,1.388,1.313,2.118c0.453,0.73,0.805,1.597,1.057,2.6c0.251,1.003,0.378,2.252,0.378,3.745v8.324
		c0,0.171-0.021,0.48-0.064,0.929s-0.192,0.907-0.447,1.376c-0.256,0.47-0.661,0.886-1.214,1.249
		c-0.554,0.363-1.342,0.544-2.365,0.544s-1.811-0.181-2.365-0.543s-0.958-0.777-1.214-1.246c-0.255-0.469-0.405-0.927-0.447-1.374
		s-0.064-0.757-0.064-0.927V31.046h2.727v12.271c0,0.17,0.007,0.373,0.021,0.607s0.064,0.458,0.149,0.671
		c0.085,0.213,0.22,0.394,0.405,0.543c0.184,0.149,0.447,0.224,0.788,0.224s0.604-0.074,0.788-0.224s0.32-0.33,0.405-0.543
		c0.085-0.213,0.135-0.437,0.149-0.671c0.014-0.234,0.021-0.438,0.021-0.607V37.755z"/>
	<path fill="#414042" d="M63.864,9.913v2.045h-2.727v34.767h-2.727V11.958h-2.727V9.913H63.864z"/>
	<path fill="#414042" d="M73.136,11.958h-3.409v14.316h2.726v2.045h-2.726V44.68h3.409v2.045H67V9.913h6.136V11.958z"/>
	<path fill="#414042" d="M84.451,46.725h-2.727l-3.408-27.321v27.321h-2.045V9.913h2.727l3.408,27.322V9.913h2.045V46.725z"/>
	<path fill="#414042" d="M95.768,46.725h-2.727L92.7,37.863h-2.024l-0.361,8.862h-2.727l2.045-36.812h4.09L95.768,46.725z
		 M92.359,27.638l-0.682-16.361l-0.682,16.361l-0.32,8.18H92.7L92.359,27.638z"/>
	<path fill="#414042" d="M106.254,9.913v2.045h-2.727v34.767h-2.727V11.958h-2.728V9.913H106.254z"/>
	<path fill="#414042" d="M115.525,11.958h-3.409v14.316h2.727v2.045h-2.727V44.68h3.409v2.045h-6.137V9.913h6.137V11.958z"/>
</g>
<polygon fill="#B64326" points="17.549,10.563 2.703,10.563 3.846,14.125 3.941,14.125 4.988,27.12 8.528,27.12 10.125,48.563 
	11.722,27.12 15.263,27.12 16.311,14.125 16.406,14.125 "/>
</svg>
